<svg xmlns="http://www.w3.org/2000/svg" version="1.1" width="2000" height="1252" viewBox="0 0 2000 1252">
  <g transform="matrix(1,0,0,1,-1.2121212121212466,-2.01935483870966)">
    <svg viewBox="0 0 396 248" data-background-color="#ffffff" preserveAspectRatio="xMidYMid meet" height="1252" width="2000" xmlns="http://www.w3.org/2000/svg">
      <g id="tight-bounds" transform="matrix(1,0,0,1,0.2400000000000091,0.4000000000000057)">
        <svg viewBox="0 0 395.52 247.2" height="247.2" width="395.52">
          <g>
            <svg></svg>
          </g>
          <g>
            <svg viewBox="0 0 395.52 247.2" height="247.2" width="395.52">
              <g transform="matrix(1,0,0,1,81.21042253521128,47.215199999999996)">
                <svg viewBox="0 0 233.09915492957742 152.7696" height="152.7696" width="233.09915492957742">
                  <g>
                    <svg viewBox="0 0 233.09915492957742 152.7696" height="152.7696" width="233.09915492957742">
                      <g>
                        <svg viewBox="0 0 233.09915492957742 152.7696" height="152.7696" width="233.09915492957742">
                          <g id="textblocktransform">
                            <svg viewBox="0 0 233.09915492957742 152.7696" height="152.7696" width="233.09915492957742" id="textblock">
                              <g>
                                <svg viewBox="0 0 233.09915492957742 152.7696" height="152.7696" width="233.09915492957742">
                                  <g transform="matrix(1,0,0,1,0,0)">
                                    <svg width="233.09915492957742" viewBox="3.78 -31.95 48.74 31.95" height="152.7696" data-palette-color="#1D1D26">
                                      <path d="M26.68 0L22.4 0 21.5-6.55Q21.25-8.4 20.65-9.76 20.05-11.13 18.81-11.9 17.57-12.68 15.3-12.68L15.3-12.68 6.63-12.7 6.63-15.98 15.9-16Q19.18-16 20.58-17.61 21.98-19.23 21.98-22L21.98-22 21.98-22.75Q21.98-25.5 20.55-27.01 19.13-28.53 15.8-28.53L15.8-28.53 6.5-28.53 6.5-31.95 16.35-31.95Q21.5-31.95 23.84-29.69 26.18-27.43 26.18-23.45L26.18-23.45 26.18-22.6Q26.18-19.48 24.7-17.49 23.23-15.5 19.8-15.08L19.8-15.08 19.8-14.58 18.03-15.2Q20.8-15 22.31-13.99 23.83-12.98 24.53-11.23 25.23-9.47 25.6-7.03L25.6-7.03 26.68 0ZM7.88 0L3.78 0 3.78-31.95 7.85-31.95 7.85-14.88 7.88-13.3 7.88 0ZM35.72-3.5L52.52-3.5 52.52 0 30.92 0 30.92-3.28 47.55-28.5 31.07-28.5 31.07-31.95 52.35-31.95 52.35-28.73 35.72-3.5Z" opacity="1" transform="matrix(1,0,0,1,0,0)" fill="#1D1D26" class="wordmark-text-0" data-fill-palette-color="primary" id="text-0"></path>
                                    </svg>
                                  </g>
                                </svg>
                              </g>
                            </svg>
                          </g>
                        </svg>
                      </g>
                    </svg>
                  </g>
                </svg>
              </g>
              <path d="M263.512 41.215L263.512 0 16.312 0 16.312 247.2 263.512 247.2 263.512 205.985 249.735 205.985 249.735 233.423 30.089 233.423 30.089 13.777 249.735 13.777 249.735 41.215Z" fill="#1D1D26" stroke="transparent" data-fill-palette-color="tertiary"></path>
            </svg>
          </g>
          <defs></defs>
        </svg>
        <rect width="395.52" height="247.2" fill="none" stroke="none" visibility="hidden"></rect>
      </g>
    </svg>
  </g>
</svg>
